HIERARCHY
ROOT Hips
{
	OFFSET 0.00000 0.00000 0.00000
	CHANNELS 6 Xposition Yposition Zposition Zrotation Yrotation Xrotation 
	JOINT LHipJoint
	{
		OFFSET 0 0 0
		CHANNELS 3 Zrotation Yrotation Xrotation
		JOINT LeftHip
		{
			OFFSET 1.75344 -1.53157 0.77399
			CHANNELS 3 Zrotation Yrotation Xrotation
			JOINT LeftKnee
			{
				OFFSET 2.25415 -6.19323 0.00000
				CHANNELS 3 Zrotation Yrotation Xrotation
				JOINT LeftAnkle
				{
					OFFSET 2.30342 -6.32861 0.00000
					CHANNELS 3 Zrotation Yrotation Xrotation
					JOINT LeftToe
					{
						OFFSET 0.10958 -0.30108 1.49206
						CHANNELS 3 Zrotation Yrotation Xrotation
						End Site
						{
							OFFSET 0.00000 -0.00000 0.77783
						}
					}
				}
			}
		}
	}
	JOINT RHipJoint
	{
		OFFSET 0 0 0
		CHANNELS 3 Zrotation Yrotation Xrotation
		JOINT RightHip
		{
			OFFSET -1.81912 -1.53156 0.77399
			CHANNELS 3 Zrotation Yrotation Xrotation
			JOINT RightKnee
			{
				OFFSET -2.22882 -6.12365 0.00000
				CHANNELS 3 Zrotation Yrotation Xrotation
				JOINT RightAnkle
				{
					OFFSET -2.21943 -6.09785 0.00000
					CHANNELS 3 Zrotation Yrotation Xrotation
					JOINT RightToe
					{
						OFFSET -0.18931 -0.52012 1.59379
						CHANNELS 3 Zrotation Yrotation Xrotation
						End Site
						{
							OFFSET -0.00000 -0.00000 0.84686
						}
					}
				}
			}
		}
	}
	JOINT lowerback
	{
		OFFSET 0 0 0
		CHANNELS 3 Zrotation Yrotation Xrotation
		JOINT Chest
		{
			OFFSET -0.00200 1.66634 -0.14248
			CHANNELS 3 Zrotation Yrotation Xrotation
			JOINT Chest2
			{
				OFFSET -0.00875 1.64542 0.09514
				CHANNELS 3 Zrotation Yrotation Xrotation
				JOINT lowerneck
				{
					OFFSET 0 0 0
					CHANNELS 3 Zrotation Yrotation Xrotation
					JOINT Neck
					{
						OFFSET 0.02257 1.59605 0.00839
						CHANNELS 3 Zrotation Yrotation Xrotation
						JOINT Head
						{
							OFFSET -0.10214 1.57530 -0.23335
							CHANNELS 3 Zrotation Yrotation Xrotation
							End Site
							{
								OFFSET -0.03588 1.60717 -0.08062
							}
						}
					}
				}
				JOINT LeftCollar
				{
					OFFSET 0 0 0
					CHANNELS 3 Zrotation Yrotation Xrotation
					JOINT LeftShoulder
					{
						OFFSET 2.54983 1.10186 0.40078
CHANNELS 3 Zrotation Xrotation Yrotation
						JOINT LeftElbow
						{
OFFSET 0 -4.288400 0.000000
CHANNELS 3 Zrotation Xrotation Yrotation
							JOINT LeftWrist
							{
OFFSET 0 -3.065520 -0.000000
CHANNELS 3 Zrotation Xrotation Yrotation
								JOINT lhand
								{
									OFFSET 0 0 0
CHANNELS 3 Zrotation Xrotation Yrotation
									JOINT LFingers
									{
OFFSET 0 -0.753040 0.000000
CHANNELS 3 Zrotation Xrotation Yrotation
										End Site
										{
OFFSET 0 -0.607120 0.000000
										}
									}
								}
								JOINT LThumb
								{
OFFSET 0 0.000000 0.000000
CHANNELS 3 Zrotation Xrotation Yrotation
									End Site
									{
OFFSET 0 -0.616390 0.616390
									}
								}
							}
						}
					}
				}
				JOINT RightCollar
				{
					OFFSET 0 0 0
					CHANNELS 3 Zrotation Yrotation Xrotation
					JOINT RightShoulder
					{
						OFFSET -2.60909 1.35448 0.21802
CHANNELS 3 Zrotation Xrotation Yrotation
						JOINT RightElbow
						{
OFFSET 0 -4.521720 -0.000000
CHANNELS 3 Zrotation Xrotation Yrotation
							JOINT RightWrist
							{
OFFSET 0 -2.891400 0.000000
CHANNELS 3 Zrotation Xrotation Yrotation
								JOINT rhand
								{
									OFFSET 0 0 0
CHANNELS 3 Zrotation Xrotation Yrotation
									JOINT RFingers
									{
OFFSET 0 -0.680540 0.000000
CHANNELS 3 Zrotation Xrotation Yrotation
										End Site
										{
OFFSET 0 -0.548670 0.000000
										}
									}
								}
								JOINT RThumb
								{
OFFSET 0 0.000000 0.000000
CHANNELS 3 Zrotation Xrotation Yrotation
									End Site
									{
OFFSET 0 -0.557050 0.557050
									}
								}
							}
						}
					}
				}
			}
		}
	}
}
MOTION
Frames: 11
Frame Time: 0.008333333333333333
9.103720 15.466798 19.768194 -177.773815 4.651850 195.397770 0.000000 0.000000 0.000000 -17.199365 -9.811426 -23.315197 5.759388 14.182629 43.992214 0.733571 -4.146298 -15.218323 2.575404 -9.972888 -28.889758 0.000000 0.000000 0.000000 24.869103 6.540415 -20.054566 -4.366315 -12.621118 37.984284 -0.080961 -9.801531 -15.108805 -0.127083 2.289794 -6.307533 0.585724 3.136147 12.891608 -0.641520 4.276320 -4.358685 -2.011775 1.959773 -11.927967 -0.934451 0.377057 -11.394081 -1.554076 -0.078987 -5.672192 -0.326251 -0.324559 0.111652 0.000000 0.000000 0.000000 37.225807 8.702957 -39.678468 48.149604 -52.221148 24.703965 -15.145201 22.848513 38.025401 0.000000 0.000000 0.000000 -7.125000 0.000000 0.000000 -25.273422 -5.952389 -30.772654 0.000000 0.000000 0.000000 -46.739185 -50.903412 24.783068 -47.120730 -51.765996 -23.893286 4.948217 1.040524 61.514005 0.000000 0.000000 0.000000 7.125000 0.000000 0.000000 94.163590 37.697852 -36.387836
9.107545 15.591968 19.670042 -177.957167 4.401380 194.669943 0.000000 0.000000 0.000000 -17.620060 -9.292498 -21.484081 5.329152 13.733905 42.203677 0.530907 -3.868508 -12.808774 2.395924 -9.633723 -27.808682 0.000000 0.000000 0.000000 24.782438 5.641288 -18.223766 -3.952201 -12.081456 36.041568 0.061375 -9.903222 -12.785706 -0.110525 2.142519 -5.899654 0.404889 3.214453 13.093513 -0.613972 4.372896 -4.748017 -1.938024 2.013455 -12.512279 -0.949049 0.257898 -11.107929 -1.650057 -0.080809 -4.358781 -0.356245 -0.278788 0.481722 0.000000 0.000000 0.000000 37.381284 9.958892 -40.967410 48.245574 -52.262888 24.779786 -16.701745 23.506409 37.136558 0.000000 0.000000 0.000000 -7.125000 0.000000 0.000000 -26.044847 -5.180448 -31.620308 0.000000 0.000000 0.000000 -46.750375 -49.827274 25.523939 -47.116247 -51.763992 -23.889741 5.171735 1.121323 60.908714 0.000000 0.000000 0.000000 7.125000 0.000000 0.000000 97.053993 70.454993 -76.879267
9.110974 15.721547 19.571169 -178.147945 4.115267 193.950239 0.000000 0.000000 0.000000 -18.015067 -8.831630 -19.655935 4.902421 13.265641 40.384695 0.340611 -3.557047 -10.235790 2.136873 -9.137271 -26.231870 0.000000 0.000000 0.000000 24.664863 4.810546 -16.393476 -3.547602 -11.522627 34.076180 0.197492 -10.146303 -10.339943 -0.102808 2.067066 -5.690924 0.164648 3.291622 13.469389 -0.547253 4.468660 -5.248594 -1.807373 2.069992 -13.341199 -0.993582 0.131963 -10.820315 -1.791961 -0.084882 -2.887969 -0.396008 -0.236613 0.903470 0.000000 0.000000 0.000000 37.402773 11.365987 -42.259716 48.264223 -52.270980 24.794577 -18.378608 24.312982 36.203997 0.000000 0.000000 0.000000 -7.125000 0.000000 0.000000 -26.880412 -4.391613 -32.556513 0.000000 0.000000 0.000000 -46.657558 -48.570390 26.518932 -47.002745 -51.712654 -23.800568 5.267392 1.303205 60.293723 0.000000 0.000000 0.000000 7.125000 0.000000 0.000000 95.350389 70.462388 -75.001712
9.115118 15.857625 19.475227 -178.250826 3.718531 193.288005 0.000000 0.000000 0.000000 -18.241493 -8.517331 -17.909601 4.487596 12.768117 38.529502 0.196329 -2.921421 -7.429656 2.035435 -8.939292 -25.605805 0.000000 0.000000 0.000000 24.642922 4.209688 -14.604318 -3.168883 -10.944978 32.114773 0.317232 -10.802122 -7.663433 -0.114811 2.177772 -5.997327 0.163981 3.337951 12.986883 -0.516294 4.539708 -5.269010 -1.755979 2.114659 -13.071037 -1.031954 0.033712 -10.580669 -1.897392 -0.115887 -1.930187 -0.425667 -0.227982 1.170835 0.000000 0.000000 0.000000 37.324421 11.870940 -43.082903 47.881102 -52.102190 24.492489 -19.853197 24.990865 35.270609 0.000000 0.000000 0.000000 -7.125000 0.000000 0.000000 -27.630934 -3.625091 -33.371091 0.000000 0.000000 0.000000 -47.137571 -47.856136 26.751517 -46.609514 -51.531123 -23.492819 5.304489 1.576853 59.965823 0.000000 0.000000 0.000000 7.125000 0.000000 0.000000 94.440145 70.465276 -74.003234
9.119566 15.996475 19.380535 -178.316205 3.274597 192.650292 0.000000 0.000000 0.000000 -18.395991 -8.265568 -16.198172 4.077852 12.258107 36.658860 0.071681 -2.147484 -4.524043 2.001245 -8.868662 -25.385392 0.000000 0.000000 0.000000 24.661785 3.706913 -12.832709 -2.801207 -10.359301 30.155065 0.429984 -11.634042 -4.888471 -0.135229 2.367907 -6.523521 0.265533 3.371123 12.138136 -0.500592 4.600211 -5.084555 -1.738402 2.154261 -12.331933 -1.067698 -0.052728 -10.361489 -1.987262 -0.158383 -1.191297 -0.451015 -0.233662 1.372331 0.000000 0.000000 0.000000 37.203470 11.990980 -43.705932 47.326560 -51.857930 24.055200 -21.241482 25.613841 34.336869 0.000000 0.000000 0.000000 -7.125000 0.000000 0.000000 -28.345173 -2.868088 -34.133774 0.000000 0.000000 0.000000 -47.861992 -47.373404 26.658807 -46.096932 -51.294044 -23.091810 5.316600 1.889654 59.760415 0.000000 0.000000 0.000000 7.125000 0.000000 0.000000 93.868400 70.466241 -73.379830
9.125222 16.146062 19.282263 -178.446459 2.736170 192.007210 0.000000 0.000000 0.000000 -18.556976 -8.351289 -14.488578 3.690076 11.719150 34.767458 0.030430 -0.692183 -1.642948 1.679637 -8.113401 -23.087465 0.000000 0.000000 0.000000 24.614969 3.503233 -10.968664 -2.465655 -9.753221 28.199653 0.513251 -13.085405 -2.073824 -0.118959 2.213534 -6.096502 0.301718 3.369665 11.106710 -0.479477 4.596017 -4.795764 -1.645928 2.171090 -11.384201 -1.066889 -0.067268 -10.113406 -2.118204 -0.122001 -0.532316 -0.492156 -0.206324 1.544343 0.000000 0.000000 0.000000 36.921943 12.084310 -44.152994 46.729961 -51.585572 23.587398 -22.293805 26.229211 33.603614 0.000000 0.000000 0.000000 -7.125000 0.000000 0.000000 -28.893197 -2.294301 -34.721743 0.000000 0.000000 0.000000 -48.586815 -46.962570 26.564219 -45.428337 -50.972717 -22.572148 5.329964 2.317082 59.560913 0.000000 0.000000 0.000000 7.125000 0.000000 0.000000 93.313344 70.463671 -72.773874
9.131116 16.297774 19.183283 -178.589543 2.179056 191.363067 0.000000 0.000000 0.000000 -18.719245 -8.503750 -12.779347 3.306645 11.174468 32.871950 0.005671 0.897866 1.233297 1.301190 -7.222746 -20.378686 0.000000 0.000000 0.000000 24.555163 3.358703 -9.086339 -2.136455 -9.143107 26.245090 0.590688 -14.659270 0.748672 -0.095433 1.991032 -5.480975 0.324975 3.361359 10.039157 -0.457291 4.579029 -4.486339 -1.538642 2.183416 -10.395210 -1.058850 -0.067590 -9.859607 -2.257268 -0.070019 0.110863 -0.536421 -0.172455 1.710523 0.000000 0.000000 0.000000 36.608660 12.172357 -44.565257 46.125045 -51.307658 23.113561 -23.279687 26.843076 32.910008 0.000000 0.000000 0.000000 -7.125000 0.000000 0.000000 -29.408352 -1.756746 -35.275160 0.000000 0.000000 0.000000 -49.311717 -46.565956 26.469258 -44.728890 -50.634729 -22.029020 5.343576 2.767178 59.362579 0.000000 0.000000 0.000000 7.125000 0.000000 0.000000 92.761589 70.460402 -72.171370
9.135038 16.448810 19.085914 -178.816217 1.557716 190.732942 0.000000 0.000000 0.000000 -18.991012 -8.995456 -10.966588 2.963607 10.617793 31.020003 0.052355 3.084577 3.814327 1.188208 -6.911102 -19.454756 0.000000 0.000000 0.000000 24.399358 3.605440 -7.174732 -1.855905 -8.535848 24.368510 0.713191 -17.250556 3.087170 -0.045843 0.874728 -2.408341 0.133908 3.302794 9.746976 -0.393673 4.492832 -4.631265 -1.335980 2.163395 -10.404171 -0.986795 0.017704 -9.507887 -2.460713 0.110620 1.228019 -0.608774 -0.079398 2.019535 0.000000 0.000000 0.000000 36.147664 13.108360 -45.128347 45.684663 -51.098018 22.770770 -24.579322 27.688089 31.990861 0.000000 0.000000 0.000000 -7.125000 0.000000 0.000000 -30.091155 -1.082591 -36.032518 0.000000 0.000000 0.000000 -49.333885 -45.647079 27.301431 -44.050573 -50.290926 -21.506972 5.469802 3.287315 59.091089 0.000000 0.000000 0.000000 7.125000 0.000000 0.000000 92.032682 70.414974 -71.332422
9.138687 16.599781 18.989295 -179.039629 0.927513 190.112578 0.000000 0.000000 0.000000 -19.262510 -9.538222 -9.156389 2.626733 10.061178 29.178277 0.104498 5.322527 6.359232 1.055060 -6.499645 -18.251077 0.000000 0.000000 0.000000 24.251682 3.917961 -5.267218 -1.582919 -7.932829 22.512520 0.870556 -19.994762 5.226271 -0.028317 -0.394833 1.091905 -0.048377 3.244508 9.489692 -0.335697 4.397595 -4.794861 -1.145208 2.132975 -10.453814 -0.901662 0.111018 -9.158676 -2.660399 0.299103 2.359098 -0.682064 0.016565 2.334495 0.000000 0.000000 0.000000 35.685809 14.071220 -45.681852 45.239869 -50.885026 22.424893 -25.879591 28.501386 31.030636 0.000000 0.000000 0.000000 -7.125000 0.000000 0.000000 -30.779883 -0.376882 -36.780699 0.000000 0.000000 0.000000 -49.301695 -44.698480 28.170770 -43.390500 -49.954716 -20.999440 5.581468 3.838291 58.812686 0.000000 0.000000 0.000000 7.125000 0.000000 0.000000 91.281492 70.373193 -70.474974
9.140509 16.750367 18.898783 -179.211115 0.237980 189.573469 0.000000 0.000000 0.000000 -19.500929 -10.431395 -7.397587 2.332313 9.508458 27.413527 0.184239 7.840207 8.671718 0.671414 -5.054609 -14.105086 0.000000 0.000000 0.000000 24.201897 4.694792 -3.403650 -1.362291 -7.366015 20.814328 1.319527 -23.788028 5.760985 -0.297925 -2.751102 7.634517 -0.093875 3.202762 9.319385 -0.338591 4.242883 -4.993892 -1.084973 2.020866 -10.578463 -0.720370 0.250297 -8.858844 -2.809217 0.519945 3.478686 -0.755642 0.121278 2.661283 0.000000 0.000000 0.000000 35.257898 15.030522 -46.109388 44.710407 -50.623618 22.015310 -27.097354 28.973026 29.775199 0.000000 0.000000 0.000000 -7.125000 0.000000 0.000000 -31.473275 0.565861 -37.391564 0.000000 0.000000 0.000000 -48.992324 -43.637036 29.104296 -42.883706 -49.686394 -20.612686 5.534471 4.638754 58.494473 0.000000 0.000000 0.000000 7.125000 0.000000 0.000000 90.385532 70.375068 -69.522424
9.142103 16.900902 18.808943 -179.376511 -0.453851 189.047810 0.000000 0.000000 0.000000 -19.748445 -11.424319 -5.648099 2.052433 8.967550 25.698514 0.238261 10.494306 10.743517 0.332264 -3.545056 -9.812918 0.000000 0.000000 0.000000 24.177463 5.549843 -1.567830 -1.157537 -6.823828 19.197046 1.907392 -27.586014 5.467388 -0.791168 -5.280648 14.831377 -0.140894 3.146298 9.111002 -0.338529 4.088843 -5.156724 -1.018877 1.918958 -10.640180 -0.503221 0.411729 -8.598522 -2.986912 0.763396 4.540532 -0.844040 0.235051 2.978808 0.000000 0.000000 0.000000 34.794538 15.930585 -46.470185 44.131360 -50.333725 21.568552 -28.138859 29.334091 28.601117 0.000000 0.000000 0.000000 -7.125000 0.000000 0.000000 -32.081406 1.459680 -37.879382 0.000000 0.000000 0.000000 -48.726155 -42.597213 29.975017 -42.393367 -49.424911 -20.239064 5.401411 5.484932 58.135151 0.000000 0.000000 0.000000 7.125000 0.000000 0.000000 89.349182 70.399909 -68.454263
